<svg xmlns="http://www.w3.org/2000/svg" width="256" height="256" viewBox="0 0 100 100"><path fill="#fff" d="M41.54 35.78L41.54 35.78Q41.54 36.62 41.03 37.22Q40.52 37.82 39.86 38.12L39.86 38.12Q38.30 37.04 36.20 36.08Q34.10 35.12 30.74 35.12L30.74 35.12Q27.98 35.12 25.64 36.08Q23.30 37.04 21.56 38.90Q19.82 40.76 18.83 43.58Q17.84 46.40 17.84 50.06L17.84 50.06Q17.84 53.78 18.80 56.54Q19.76 59.30 21.47 61.16Q23.18 63.02 25.58 63.95Q27.98 64.88 30.92 64.88L30.92 64.88Q34.04 64.88 36.35 64.01Q38.66 63.14 40.22 61.94L40.22 61.94Q40.82 62.18 41.36 62.81Q41.90 63.44 41.90 64.28L41.90 64.28Q41.90 65.54 40.46 66.56L40.46 66.56Q39.08 67.52 36.68 68.27Q34.28 69.02 30.56 69.02L30.56 69.02Q26.78 69.02 23.54 67.82Q20.30 66.62 17.93 64.25Q15.56 61.88 14.18 58.34Q12.80 54.80 12.80 50.06L12.80 50.06Q12.80 45.32 14.21 41.75Q15.62 38.18 18.02 35.78Q20.42 33.38 23.63 32.18Q26.84 30.98 30.38 30.98L30.38 30.98Q32.84 30.98 34.91 31.40Q36.98 31.82 38.45 32.51Q39.92 33.20 40.73 34.07Q41.54 34.94 41.54 35.78ZM70.94 58.76L70.94 58.76Q70.52 59.06 69.83 59.30Q69.14 59.54 68.30 59.54L68.30 59.54Q67.34 59.54 66.59 59.24Q65.84 58.94 65.54 58.28L65.54 58.28Q62.30 51.56 59.96 45.98Q57.62 40.40 56.18 36.74L56.18 36.74L55.94 36.74Q55.76 41.24 55.55 45.11Q55.34 48.98 55.10 52.67Q54.86 56.36 54.62 60.14Q54.38 63.92 54.14 68.24L54.14 68.24Q53.78 68.36 53.21 68.48Q52.64 68.60 51.98 68.60L51.98 68.60Q50.66 68.60 50.12 68.06Q49.58 67.52 49.58 66.50L49.58 66.50Q49.58 65.90 49.67 63.92Q49.76 61.94 49.94 59.12Q50.12 56.30 50.33 52.88Q50.54 49.46 50.81 45.92Q51.08 42.38 51.35 38.96Q51.62 35.54 51.86 32.72L51.86 32.72Q52.34 32.30 53.24 31.94Q54.14 31.58 55.28 31.58L55.28 31.58Q58.04 31.58 59.12 33.80L59.12 33.80Q60.26 36.14 61.43 38.75Q62.60 41.36 63.77 44.06Q64.94 46.76 66.05 49.40Q67.16 52.04 68.18 54.44L68.18 54.44L68.42 54.44Q69.74 51.26 71.06 48.17Q72.38 45.08 73.64 42.20Q74.90 39.32 76.04 36.80Q77.18 34.28 78.08 32.18L78.08 32.18Q78.62 31.88 79.46 31.73Q80.30 31.58 81.02 31.58L81.02 31.58Q83.84 31.58 84.26 33.50L84.26 33.50Q84.50 34.58 84.80 37.07Q85.10 39.56 85.40 42.80Q85.70 46.04 85.97 49.76Q86.24 53.48 86.48 56.93Q86.72 60.38 86.90 63.29Q87.08 66.20 87.20 67.88L87.20 67.88Q86.12 68.60 84.68 68.60L84.68 68.60Q83.78 68.60 83.09 68.15Q82.40 67.70 82.28 66.50L82.28 66.50Q81.98 62.12 81.74 57.80Q81.50 53.48 81.29 49.58Q81.08 45.68 80.90 42.41Q80.72 39.14 80.60 36.86L80.60 36.86L80.36 36.86Q79.70 38.54 78.83 40.64Q77.96 42.74 76.79 45.38Q75.62 48.02 74.18 51.35Q72.74 54.68 70.94 58.76Z"></path></svg>